# Blender v3.0.1 OBJ File: 'rock.blend'
# www.blender.org
mtllib rockObject.mtl
o Cube_lp.002_Cube.006
v -1.125689 -0.098063 -0.976501
v -1.288008 -0.407381 -0.693777
v -0.844308 -0.859729 -0.074190
v -0.713698 -0.910796 0.274154
v -0.700295 -0.869192 0.494326
v -1.222032 0.902078 0.078077
v -1.223307 0.957632 -0.179654
v -1.437757 0.574199 -0.709472
v -0.171106 0.142542 -1.097602
v -0.149547 1.110894 -0.029322
v 0.215487 0.975484 -0.519062
v 0.499394 -0.008992 -0.771897
v 0.613087 0.763702 0.216147
v 0.487400 0.718542 0.404444
v 0.721891 -0.457629 -0.166931
v 0.235018 -0.746212 -0.040170
v -0.003658 0.034729 1.110891
v -0.393986 -0.087827 1.072071
v -0.780485 -0.362229 0.924138
v -1.103251 -0.642791 0.491298
v -1.150222 -0.302701 0.670631
v -1.451941 -0.461165 0.078030
v -1.573512 -0.037802 0.050013
v -1.505306 -0.008970 -0.726949
v -1.595801 0.451788 -0.480711
v -0.883951 1.047585 -0.495682
v -0.261771 0.636291 -1.111385
v -0.358570 0.923977 -0.964049
v -0.478737 1.198749 -0.369728
v 0.410523 0.928706 -0.335191
v 0.674718 0.682442 -0.267251
v 0.853527 -0.059220 -0.331574
v 0.876053 -0.242753 -0.052770
v 0.452708 0.121697 0.916375
v 0.153186 -0.536654 0.831107
v -0.034198 -0.329504 1.070222
v -0.107427 -0.043431 -1.016167
v 0.321698 -0.407093 -0.680105
v -0.046737 -0.774448 -0.176845
v -0.430310 1.017131 0.303656
v -0.837506 0.900405 0.257018
v -0.731171 0.315837 0.832766
v -1.090265 -0.662105 -0.441718
v -1.128354 -0.728040 -0.124919
v -1.341196 0.452749 0.232030
v -1.289346 0.760659 0.147577
v -1.376261 0.302857 -0.870498
v 0.011650 0.423487 -1.078139
v 0.722904 -0.411453 -0.371875
v 0.581227 -0.479724 -0.499119
v 0.264300 0.232684 -0.941810
v 0.706316 0.216663 0.712018
v -0.560365 -0.951003 0.118662
v -0.085256 -0.877924 0.149418
v 0.589894 -0.563074 -0.284766
v -1.520532 -0.326786 0.154777
v -1.311582 -0.605819 -0.060479
v -1.588430 -0.243932 -0.125180
v -1.602865 -0.142925 -0.020991
v -1.654362 0.295658 -0.329914
v -1.498546 -0.290574 -0.447186
v -1.394004 -0.189608 -0.793927
v -1.600382 0.368802 -0.569693
v -1.629089 0.163827 -0.528767
v -1.502513 0.596479 -0.253589
v -1.111106 -0.721366 0.148553
v -1.210258 -0.435827 0.576250
v -1.144528 0.093922 0.569793
v -1.368536 -0.088976 -0.880775
v -1.384242 -0.513139 -0.293006
v -1.483735 0.399258 -0.765344
v -1.214783 0.429742 -0.948576
v -0.878680 0.393001 -1.087153
v -1.271990 0.811014 -0.653611
v -1.050928 1.076053 -0.194028
v -0.814254 0.219425 -1.105568
v -1.097190 0.657775 -0.931033
v -0.437016 0.989015 -0.870704
v -0.378154 0.462823 -1.159232
v -0.567983 0.813051 -1.035245
v -0.138327 0.537755 -1.125757
v -0.115272 0.894194 -0.877709
v -0.154224 1.038786 -0.732515
v -0.264655 1.176013 -0.431526
v 0.046404 1.089465 -0.381168
v -0.473452 1.211825 -0.206567
v -1.180826 0.035382 -0.996808
v 0.348807 0.732276 -0.639006
v 0.532799 0.260501 -0.761951
v 0.677609 0.399601 -0.524900
v 0.708435 0.534749 -0.374811
v 0.365306 0.937824 -0.027116
v 0.610249 0.804520 -0.026977
v 0.721909 -0.060638 -0.570136
v 0.843786 0.423295 -0.169496
v 0.771084 0.651312 0.052801
v 0.900918 0.192568 -0.140762
v 0.839345 0.445662 0.240123
v 0.911682 -0.016314 -0.046692
v 0.830569 0.024065 0.485101
v 0.798642 0.460012 0.456025
v 0.656538 -0.296470 -0.581396
v 0.725110 -0.146532 0.584191
v 0.516097 -0.430194 0.639376
v 0.605227 -0.449575 0.213258
v 0.536651 -0.248393 0.781779
v 0.499018 -0.102709 0.883701
v 0.307964 -0.591231 0.664820
v 0.130283 -0.384764 0.998672
v 0.150584 -0.537963 0.831174
v -0.611141 -0.598961 0.907113
v -0.291991 -0.881480 0.479489
v -0.333807 -0.300642 1.088981
v -0.499484 -0.948067 0.374477
v -0.592804 -0.795871 0.684602
v 0.761403 -0.233796 0.429218
v 0.063855 -0.113599 1.101516
v -0.805631 -0.602060 0.856979
v -0.759653 -0.737478 0.743822
v 0.095802 -0.819366 0.284087
v -0.445234 0.003486 -1.086808
v -0.651959 -0.413327 -0.803798
v -0.397043 -0.275322 -0.909248
v -0.171150 -0.349364 -0.772104
v -0.669688 -0.484451 -0.717060
v -0.413025 -0.540834 -0.646516
v -0.338870 -0.841919 -0.067212
v 0.387244 -0.585099 -0.453418
v 0.245704 -0.713434 -0.212080
v 0.347975 -0.117196 -0.824364
v -0.814308 -0.833603 -0.235785
v -1.025197 -0.397522 -0.782707
v -0.801103 1.104491 0.040245
v 0.175087 1.045390 -0.242577
v -0.424927 1.112467 0.150930
v -0.948191 0.978364 0.172335
v 0.025111 1.004226 0.221831
v -1.072216 0.764803 0.328248
v -0.935719 0.729835 0.409547
v 0.001831 0.852876 0.445593
v -0.681165 0.535664 0.705234
v -0.232661 0.563416 0.738711
v 0.369289 0.350134 0.848216
v -0.373033 0.257357 0.995160
v -0.017475 0.305789 0.974059
v -1.128002 0.522902 0.480272
v -0.823218 0.190038 0.830376
v 0.655537 0.403149 0.680624
v 0.366641 0.543878 0.691735
v 0.315612 0.546419 -0.835990
vt 0.507631 0.010086
vt 0.487258 0.056526
vt 0.435987 0.029980
vt 0.550558 0.021501
vt 0.578542 0.022741
vt 0.526247 0.059738
vt 0.618266 0.098203
vt 0.561671 0.079956
vt 0.440320 0.058608
vt 0.433454 0.082742
vt 0.393192 0.061805
vt 0.507007 0.082902
vt 0.456289 0.105250
vt 0.533550 0.082168
vt 0.392526 0.134012
vt 0.540996 0.142898
vt 0.416617 0.153109
vt 0.454411 0.156458
vt 0.515229 0.188532
vt 0.498656 0.147388
vt 0.620081 0.151569
vt 0.582057 0.182657
vt 0.410315 0.183815
vt 0.541551 0.197234
vt 0.489169 0.233874
vt 0.455154 0.253721
vt 0.524532 0.259459
vt 0.627425 0.000000
vt 0.625000 0.187500
vt 0.621184 0.284302
vt 0.395560 0.012419
vt 0.503184 0.338892
vt 0.386165 0.237962
vt 0.441086 0.341354
vt 0.402065 0.332284
vt 0.468791 0.305844
vt 0.620670 0.327224
vt 0.577355 0.349332
vt 0.552917 0.308384
vt 0.495750 0.387100
vt 0.436222 0.391114
vt 0.530847 0.397296
vt 0.506325 0.409119
vt 0.443994 0.430209
vt 0.418956 0.457080
vt 0.380308 0.421447
vt 0.595558 0.386314
vt 0.536772 0.429688
vt 0.497649 0.444314
vt 0.461159 0.500372
vt 0.592871 0.425596
vt 0.586442 0.462850
vt 0.620494 0.390104
vt 0.625000 0.422605
vt 0.606816 0.497013
vt 0.546540 0.488343
vt 0.505227 0.510202
vt 0.375000 0.358529
vt 0.561603 0.526652
vt 0.501344 0.582246
vt 0.513923 0.616313
vt 0.472310 0.576310
vt 0.530519 0.578846
vt 0.561993 0.610342
vt 0.500403 0.643069
vt 0.454445 0.653205
vt 0.562851 0.648310
vt 0.594435 0.674954
vt 0.603739 0.610957
vt 0.417678 0.620161
vt 0.395965 0.693697
vt 0.493036 0.680474
vt 0.465244 0.711955
vt 0.549145 0.732558
vt 0.400658 0.739588
vt 0.607146 0.744280
vt 0.629063 0.701281
vt 0.497413 0.768437
vt 0.444032 0.789253
vt 0.416673 0.876321
vt 0.527702 0.773694
vt 0.487796 0.819332
vt 0.569866 0.808994
vt 0.526633 0.811013
vt 0.475909 0.851244
vt 0.547690 0.862575
vt 0.613485 0.800398
vt 0.594390 0.867259
vt 0.511236 0.869324
vt 0.511246 0.868932
vt 0.449445 0.923688
vt 0.570949 0.880905
vt 0.546321 0.951238
vt 0.422687 0.952263
vt 0.388913 0.897923
vt 0.495894 0.951227
vt 0.586782 0.915944
vt 0.452335 0.972388
vt 0.400423 0.981382
vt 0.516973 0.971015
vt 0.552082 0.975684
vt 0.621573 0.870097
vt 0.506702 1.000000
vt 0.375000 0.855089
vt 0.375000 0.789410
vt 0.236874 0.575700
vt 0.258001 0.601014
vt 0.197597 0.590044
vt 0.295783 0.548220
vt 0.197210 0.612211
vt 0.132650 0.644484
vt 0.152578 0.593621
vt 0.170863 0.668511
vt 0.198547 0.708284
vt 0.222209 0.626976
vt 0.320976 0.622008
vt 0.232844 0.699575
vt 0.357154 0.670110
vt 0.312501 0.680483
vt 0.352594 0.723850
vt 0.279272 0.713679
vt 0.174319 0.500000
vt 0.138334 0.542732
vt 0.125912 0.506357
vt 0.238837 0.524193
vt 0.387867 0.524500
vt 0.352802 0.580296
vt 0.296045 0.513771
vt 0.386107 0.642013
vt 0.224824 0.743936
vt 0.173351 0.738503
vt 0.136398 0.738737
vt 0.149777 0.702441
vt 0.125000 0.671875
vt 0.125000 0.614136
vt 0.738901 0.506745
vt 0.788963 0.543490
vt 0.741647 0.563062
vt 0.810486 0.511559
vt 0.848234 0.564323
vt 0.845487 0.512357
vt 0.808293 0.571455
vt 0.679413 0.576063
vt 0.633393 0.634168
vt 0.690699 0.526360
vt 0.753826 0.598853
vt 0.829542 0.610067
vt 0.793585 0.593750
vt 0.714325 0.627221
vt 0.802857 0.624222
vt 0.793005 0.667668
vt 0.756414 0.673444
vt 0.812394 0.698490
vt 0.675821 0.677807
vt 0.739300 0.713299
vt 0.683732 0.713280
vt 0.863728 0.598646
vt 0.875000 0.650327
vt 0.852655 0.656854
vt 0.868253 0.706379
vt 0.842145 0.715718
vt 0.875000 0.734375
vt 0.842519 0.750000
vt 0.786644 0.748342
vt 0.746096 0.748157
vt 0.668950 0.749800
vt 0.613239 0.048553
vt 0.460350 0.418124
vt 0.446738 0.004539
vt 0.546875 0.000000
vt 0.625000 0.062500
vt 0.375000 0.197377
vt 0.375000 0.097810
vt 0.375000 0.053454
vt 0.610452 0.551505
vt 0.427854 0.553571
vt 0.574945 0.580872
vt 0.586804 0.969832
vt 0.385040 0.578220
vt 0.270115 0.738179
vt 0.616304 0.915239
vt 0.381333 0.950862
vt 0.359375 0.500000
vt 0.780826 0.717232
vt 0.875000 0.546875
vn -0.6044 -0.7056 0.3698
vn -0.7661 -0.6251 0.1493
vn -0.5286 -0.8385 0.1318
vn -0.7373 -0.3355 0.5864
vn -0.6803 -0.0326 0.7322
vn -0.8794 -0.2822 0.3835
vn -0.8179 0.2295 0.5276
vn -0.8871 0.1166 0.4466
vn -0.6356 -0.7719 0.0090
vn -0.6965 -0.6887 -0.2013
vn -0.4833 -0.8697 -0.1001
vn -0.9309 -0.3626 -0.0443
vn -0.8414 -0.4643 -0.2764
vn -0.9750 -0.0988 0.1990
vn -0.4823 -0.6685 -0.5661
vn -0.9802 0.1665 0.1067
vn -0.6655 -0.4702 -0.5797
vn -0.8490 -0.1903 -0.4929
vn -0.9118 0.2022 -0.3574
vn -0.9534 -0.0927 -0.2871
vn -0.7500 0.4586 0.4767
vn -0.8533 0.5058 0.1263
vn -0.5768 -0.2745 -0.7693
vn -0.8881 0.4397 -0.1335
vn -0.7455 0.2111 -0.6322
vn -0.5927 0.0910 -0.8003
vn -0.7143 0.4950 -0.4947
vn -0.4544 -0.0858 0.8866
vn -0.6113 0.6944 0.3796
vn -0.6726 0.7399 0.0113
vn -0.3425 -0.9339 0.1024
vn -0.3977 0.4972 -0.7711
vn -0.3630 -0.1028 -0.9261
vn -0.2605 0.1506 -0.9536
vn -0.1588 -0.1068 -0.9815
vn -0.4667 0.2128 -0.8584
vn -0.4139 0.9103 -0.0043
vn -0.3050 0.8813 -0.3609
vn -0.5711 0.7136 -0.4057
vn -0.1980 0.5481 -0.8126
vn -0.0121 0.0696 -0.9975
vn -0.1180 0.8477 -0.5171
vn 0.1035 0.6796 -0.7262
vn 0.3011 0.2369 -0.9237
vn 0.4235 0.0761 -0.9026
vn 0.2056 -0.2150 -0.9547
vn -0.0962 0.9697 -0.2243
vn 0.2577 0.8412 -0.4753
vn 0.4083 0.6084 -0.6805
vn 0.5822 0.3960 -0.7100
vn 0.1555 0.9678 -0.1978
vn 0.3316 0.9356 -0.1214
vn -0.0086 0.9962 0.0861
vn 0.2340 0.9547 0.1836
vn 0.3642 0.9310 0.0241
vn 0.4896 0.7653 -0.4179
vn 0.6106 0.5503 -0.5695
vn 0.0080 -0.3628 -0.9318
vn 0.5770 0.7774 -0.2502
vn 0.7829 0.4229 -0.4563
vn 0.9266 0.2983 -0.2289
vn 0.7907 0.2958 -0.5359
vn 0.7468 0.5744 -0.3351
vn 0.8262 0.5630 0.0209
vn 0.9773 0.1259 -0.1704
vn 0.9261 -0.0849 -0.3675
vn 0.9618 0.2492 0.1130
vn 0.8210 0.4241 0.3821
vn 0.5396 0.7838 0.3075
vn 0.8033 -0.0653 -0.5920
vn 0.7946 -0.5146 -0.3221
vn 0.9983 -0.0587 0.0003
vn 0.9202 -0.3911 0.0151
vn 0.9286 -0.1050 0.3559
vn 0.7146 -0.6989 0.0291
vn 0.7531 0.0971 0.6507
vn 0.5530 0.4996 0.6667
vn 0.8228 -0.4908 0.2865
vn 0.6398 -0.7439 0.1932
vn 0.3998 -0.9047 0.1469
vn 0.8047 -0.3022 0.5110
vn 0.6468 -0.6399 0.4149
vn 0.6066 -0.1798 0.7743
vn 0.6590 -0.4136 0.6283
vn 0.4868 -0.7595 0.4313
vn 0.3441 -0.5143 0.7855
vn 0.4667 0.1794 0.8660
vn 0.2580 -0.0881 0.9621
vn 0.2517 -0.7506 0.6109
vn 0.4264 -0.6537 0.6251
vn 0.1970 -0.9073 0.3713
vn 0.1292 -0.4144 0.9008
vn -0.0976 -0.5596 0.8230
vn -0.0002 -0.9788 0.2048
vn 0.2181 -0.9718 -0.0896
vn 0.0006 -0.8362 0.5484
vn -0.1283 -0.2340 0.9637
vn -0.3064 -0.8997 0.3110
vn -0.3128 -0.7745 0.5497
vn -0.4407 -0.4566 0.7728
vn 0.1057 0.2125 0.9714
vn 0.3793 -0.9204 -0.0947
vn 0.5278 -0.8388 -0.1332
vn 0.0936 -0.6337 -0.7679
vn 0.1182 -0.6427 -0.7569
vn -0.0129 -0.6694 -0.7428
vn 0.2190 -0.4404 -0.8707
vn -0.0220 -0.8001 -0.5995
vn -0.3195 -0.8374 -0.4434
vn -0.1318 -0.6677 -0.7326
vn -0.1036 -0.9103 -0.4008
vn 0.1119 -0.9090 -0.4014
vn 0.0475 -0.8006 -0.5973
vn 0.2217 -0.6322 -0.7424
vn 0.1206 -0.9142 -0.3870
vn 0.4871 -0.6818 -0.5458
vn 0.1919 -0.8457 -0.4979
vn 0.2508 -0.9272 -0.2782
vn -0.2115 -0.4190 -0.8829
vn 0.4796 -0.0290 -0.8770
vn 0.3840 -0.3290 -0.8627
vn 0.6687 -0.3545 -0.6536
vn -0.0260 -0.9882 -0.1509
vn -0.3253 -0.9393 -0.1088
vn -0.2377 0.9084 0.3439
vn 0.0112 0.9152 0.4028
vn -0.2947 0.7497 0.5926
vn 0.2473 0.8845 0.3955
vn 0.3784 0.7664 0.5190
vn -0.0655 0.7780 0.6248
vn -0.3855 0.6143 0.6885
vn -0.2316 0.6418 0.7311
vn 0.1444 0.7563 0.6380
vn -0.2892 0.6479 0.7046
vn -0.2508 0.5874 0.7695
vn -0.0284 0.6722 0.7398
vn -0.3518 0.4284 0.8323
vn 0.2440 0.6911 0.6803
vn 0.0868 0.5610 0.8232
vn 0.2922 0.5043 0.8126
vn -0.5949 0.3819 0.7072
vn -0.7113 0.1780 0.6800
vn -0.5076 0.2206 0.8329
vn -0.2716 0.1119 0.9558
vn 0.1439 0.4006 -0.9048
vn 0.4085 0.9004 0.1499
vn 0.6732 0.1440 -0.7253
vn 0.6138 0.7895 -0.0000
vn 0.5579 -0.1503 -0.8161
vn -0.2011 0.4566 0.8666
usemtl rock_lp
s 1
f 20/1/1 22/2/2 66/3/3
f 67/4/4 21/5/5 56/6/6
f 45/7/7 23/8/8 21/5/5
f 57/9/9 70/10/10 44/11/11
f 22/2/2 70/10/10 57/9/9
f 56/6/6 58/12/12 22/2/2
f 58/12/12 61/13/13 70/10/10
f 56/6/6 59/14/14 58/12/12
f 23/8/8 59/14/14 56/6/6
f 61/13/13 2/15/15 70/10/10
f 23/8/8 60/16/16 59/14/14
f 61/13/13 62/17/17 2/15/15
f 24/18/18 62/17/17 61/13/13
f 60/16/16 63/19/19 64/20/20
f 60/16/16 46/21/21 65/22/22
f 24/18/18 69/23/23 62/17/17
f 65/22/22 25/24/24 60/16/16
f 71/25/25 47/26/26 69/23/23
f 63/19/19 71/25/25 64/20/20
f 63/19/19 25/24/24 8/27/27
f 63/19/19 8/27/27 71/25/25
f 19/28/28 21/5/5 67/4/4
f 45/7/7 46/21/21 60/16/16
f 46/21/21 6/29/29 65/22/22
f 65/22/22 7/30/30 25/24/24
f 62/17/17 69/23/23 2/15/15
f 66/3/3 44/11/11 4/31/31
f 8/27/27 77/32/32 71/25/25
f 87/33/33 73/34/34 76/35/35
f 72/36/36 77/32/32 73/34/34
f 75/37/37 26/38/38 74/39/39
f 73/34/34 80/40/40 79/41/41
f 26/38/38 78/42/42 74/39/39
f 78/42/42 80/40/40 77/32/32
f 78/42/42 28/43/43 80/40/40
f 81/44/44 48/45/45 9/46/46
f 29/47/47 83/48/48 78/42/42
f 82/49/49 150/50/50 81/44/44
f 84/51/51 85/52/52 83/48/48
f 7/30/30 74/39/39 25/24/24
f 86/53/53 84/51/51 29/47/47
f 10/54/54 84/51/51 86/53/53
f 10/54/54 85/52/52 84/51/51
f 85/52/52 134/55/55 11/56/56
f 82/49/49 11/56/56 88/57/57
f 121/58/58 79/41/41 9/46/46
f 30/59/59 91/60/60 88/57/57
f 91/60/60 95/61/61 90/62/62
f 31/63/63 96/64/64 95/61/61
f 90/62/62 97/65/65 32/66/66
f 95/61/61 98/67/67 97/65/65
f 96/64/64 101/68/68 98/67/67
f 96/64/64 13/69/69 101/68/68
f 94/70/70 32/66/66 49/71/71
f 99/72/72 33/73/73 32/66/66
f 97/65/65 98/67/67 99/72/72
f 98/67/67 100/74/74 99/72/72
f 33/73/73 15/75/75 49/71/71
f 101/68/68 52/76/76 100/74/74
f 88/57/57 90/62/62 150/50/50
f 148/77/77 52/76/76 101/68/68
f 100/74/74 116/78/78 33/73/73
f 105/79/79 120/80/80 15/75/75
f 103/81/81 104/82/82 116/78/78
f 107/83/83 106/84/84 103/81/81
f 104/82/82 108/85/85 105/79/79
f 107/83/83 109/86/86 106/84/84
f 34/87/87 117/88/88 107/83/83
f 109/86/86 110/89/89 35/90/90
f 108/85/85 110/89/89 112/91/91
f 109/86/86 36/92/92 111/93/93
f 112/91/91 114/94/94 54/95/95
f 110/89/89 111/93/93 115/96/96
f 36/92/92 113/97/97 111/93/93
f 114/94/94 5/98/98 4/99/31
f 115/96/96 5/98/98 114/94/94
f 115/96/96 119/100/99 5/98/98
f 111/93/93 118/101/100 119/100/99
f 116/78/78 105/79/79 15/75/75
f 52/76/76 107/83/83 100/74/74
f 117/88/88 17/102/101 113/97/97
f 119/100/99 118/101/100 20/103/1
f 120/80/80 54/95/95 16/104/102
f 15/75/75 16/104/102 55/105/103
f 56/6/6 22/2/2 20/1/1 67/4/4
f 123/106/104 124/107/105 122/108/106
f 37/109/107 124/107/105 123/106/104
f 125/110/108 43/111/109 132/112/110
f 125/110/108 131/113/111 43/111/109
f 125/110/108 127/114/112 131/113/111
f 125/110/108 126/115/113 127/114/112
f 38/116/114 39/117/115 126/115/113
f 38/116/114 50/118/116 128/119/117
f 128/119/117 55/120/103 129/121/118
f 76/122/35 1/123/119 87/124/33
f 121/125/58 1/123/119 76/122/35
f 51/126/120 130/127/121 9/128/46
f 102/129/122 50/118/116 38/116/114
f 50/118/116 49/71/71 55/120/103
f 39/117/115 54/130/95 127/114/112
f 54/130/95 53/131/123 127/114/112
f 53/131/123 4/132/31 3/133/124
f 131/113/111 44/134/11 43/111/109
f 131/113/111 3/133/124 44/134/11
f 132/112/110 2/135/15 1/123/119
f 86/136/53 133/137/125 135/138/126
f 75/139/37 6/140/29 133/137/125
f 75/139/37 7/141/30 6/140/29
f 133/137/125 6/140/29 136/142/127
f 13/69/69 137/143/128 14/144/129
f 10/145/54 135/138/126 137/143/128
f 135/138/126 40/146/130 137/143/128
f 136/142/127 138/147/131 41/148/132
f 137/143/128 140/149/133 14/144/129
f 138/147/131 139/150/134 41/148/132
f 40/146/130 141/151/135 142/152/136
f 141/151/135 42/153/137 142/152/136
f 149/154/138 145/155/139 143/156/140
f 6/140/29 46/157/21 138/147/131
f 46/157/21 45/158/7 146/159/141
f 146/159/141 68/160/142 147/161/143
f 68/160/142 21/162/5 147/161/143
f 147/161/143 19/163/28 18/164/144
f 42/153/137 147/161/143 18/164/144
f 17/165/101 34/166/87 143/156/140
f 143/156/140 34/166/87 148/77/77
f 14/144/129 149/154/138 148/77/77
f 66/3/3 57/9/9 44/11/11
f 66/3/3 22/2/2 57/9/9
f 64/20/20 58/12/12 59/14/14 60/16/16
f 56/6/6 21/5/5 23/8/8
f 21/5/5 68/167/142 45/7/7
f 22/2/2 58/12/12 70/10/10
f 58/12/12 64/20/20 61/13/13
f 61/13/13 64/20/20 24/18/18
f 81/44/44 27/168/145 28/43/43 82/49/49
f 23/8/8 45/7/7 60/16/16
f 64/20/20 71/25/25 24/18/18
f 60/16/16 25/24/24 63/19/19
f 69/23/23 47/26/26 87/33/33
f 24/18/18 71/25/25 69/23/23
f 5/169/98 66/3/3 4/31/31
f 20/1/1 66/3/3 5/169/98
f 20/1/1 118/170/100 67/4/4
f 118/170/100 19/28/28 67/4/4
f 68/167/142 146/171/141 45/7/7
f 87/33/33 47/26/26 72/36/36
f 69/23/23 87/33/33 1/172/119
f 2/15/15 69/23/23 1/172/119
f 70/10/10 2/15/15 43/173/109
f 44/11/11 70/10/10 43/173/109
f 4/31/31 44/11/11 3/174/124
f 87/33/33 72/36/36 73/34/34
f 72/36/36 71/25/25 77/32/32
f 7/30/30 75/37/37 74/39/39
f 8/27/27 74/39/39 77/32/32
f 76/35/35 73/34/34 79/41/41
f 73/34/34 77/32/32 80/40/40
f 74/39/39 78/42/42 77/32/32
f 26/38/38 29/47/47 78/42/42
f 79/41/41 81/44/44 9/46/46
f 80/40/40 28/43/43 27/168/145
f 79/41/41 80/40/40 27/168/145
f 81/44/44 79/41/41 27/168/145
f 30/59/59 134/55/55 92/175/146
f 78/42/42 83/48/48 28/43/43
f 28/43/43 83/48/48 82/49/49
f 29/47/47 84/51/51 83/48/48
f 81/44/44 150/50/50 48/45/45
f 83/48/48 11/56/56 82/49/49
f 83/48/48 85/52/52 11/56/56
f 47/26/26 71/25/25 72/36/36
f 8/27/27 25/24/24 74/39/39
f 75/37/37 29/47/47 26/38/38
f 75/37/37 86/53/53 29/47/47
f 10/54/54 134/55/55 85/52/52
f 11/56/56 134/55/55 30/59/59
f 82/49/49 88/57/57 150/50/50
f 121/58/58 76/35/35 79/41/41
f 150/50/50 90/62/62 89/176/147
f 88/57/57 91/60/60 90/62/62
f 30/59/59 31/63/63 91/60/60
f 94/70/70 89/176/147 90/62/62
f 30/59/59 93/177/148 31/63/63
f 93/177/148 96/64/64 31/63/63
f 30/59/59 92/175/146 93/177/148
f 90/62/62 95/61/61 97/65/65
f 91/60/60 31/63/63 95/61/61
f 93/177/148 13/69/69 96/64/64
f 94/70/70 90/62/62 32/66/66
f 95/61/61 96/64/64 98/67/67
f 32/66/66 33/73/73 49/71/71
f 97/65/65 99/72/72 32/66/66
f 99/72/72 100/74/74 33/73/73
f 98/67/67 101/68/68 100/74/74
f 48/45/45 150/50/50 51/126/120
f 150/50/50 89/176/147 51/126/120
f 11/56/56 30/59/59 88/57/57
f 19/178/28 118/101/100 111/93/93 113/97/97
f 93/177/148 92/175/146 13/69/69
f 13/69/69 14/144/129 101/68/68
f 101/68/68 14/144/129 148/77/77
f 100/74/74 103/81/81 116/78/78
f 33/73/73 116/78/78 15/75/75
f 49/71/71 15/75/75 55/120/103
f 102/129/122 94/70/70 49/71/71
f 50/118/116 102/129/122 49/71/71
f 102/129/122 12/179/149 94/70/70
f 89/176/147 94/70/70 12/179/149
f 51/126/120 89/176/147 12/179/149
f 116/78/78 104/82/82 105/79/79
f 103/81/81 106/84/84 104/82/82
f 105/79/79 108/85/85 120/80/80
f 104/82/82 35/90/90 108/85/85
f 106/84/84 35/90/90 104/82/82
f 106/84/84 109/86/86 35/90/90
f 107/83/83 117/88/88 109/86/86
f 108/85/85 35/90/90 110/89/89
f 109/86/86 117/88/88 36/92/92
f 120/80/80 112/91/91 54/95/95
f 108/85/85 112/91/91 120/80/80
f 110/89/89 109/86/86 111/93/93
f 36/92/92 117/88/88 113/97/97
f 110/89/89 115/96/96 112/91/91
f 112/91/91 115/96/96 114/94/94
f 115/96/96 111/93/93 119/100/99
f 16/180/102 54/130/95 39/117/115 129/121/118
f 100/74/74 107/83/83 103/81/81
f 52/76/76 34/87/87 107/83/83
f 117/88/88 34/87/87 17/102/101
f 113/97/97 17/102/101 18/181/144
f 18/181/144 19/178/28 113/97/97
f 5/98/98 119/100/99 20/103/1
f 53/182/123 114/94/94 4/99/31
f 54/95/95 114/94/94 53/182/123
f 15/75/75 120/80/80 16/104/102
f 121/125/58 132/112/110 1/123/119
f 121/125/58 123/106/104 122/108/106
f 121/125/58 37/109/107 123/106/104
f 9/128/46 130/127/121 37/109/107
f 121/125/58 122/108/106 132/112/110
f 37/109/107 38/116/114 124/107/105
f 37/109/107 130/127/121 38/116/114
f 132/112/110 122/108/106 125/110/108
f 122/108/106 126/115/113 125/110/108
f 122/108/106 124/107/105 126/115/113
f 124/107/105 38/116/114 126/115/113
f 126/115/113 39/117/115 127/114/112
f 131/113/111 127/114/112 53/131/123
f 131/113/111 53/131/123 3/133/124
f 38/116/114 128/119/117 39/117/115
f 39/117/115 128/119/117 129/121/118
f 128/119/117 50/118/116 55/120/103
f 9/128/46 37/109/107 121/125/58
f 48/183/45 51/126/120 9/128/46
f 51/126/120 12/179/149 130/127/121
f 12/179/149 102/129/122 130/127/121
f 130/127/121 102/129/122 38/116/114
f 129/121/118 55/120/103 16/180/102
f 145/155/139 149/154/138 140/149/133 142/152/136
f 132/112/110 43/111/109 2/135/15
f 134/55/55 10/145/54 137/143/128
f 10/145/54 86/136/53 135/138/126
f 133/137/125 136/142/127 40/146/130
f 135/138/126 133/137/125 40/146/130
f 136/142/127 41/148/132 40/146/130
f 136/142/127 6/140/29 138/147/131
f 137/143/128 40/146/130 140/149/133
f 41/148/132 139/150/134 40/146/130
f 40/146/130 139/150/134 141/151/135
f 140/149/133 40/146/130 142/152/136
f 139/150/134 138/147/131 146/159/141
f 14/144/129 140/149/133 149/154/138
f 141/151/135 139/150/134 42/153/137
f 139/150/134 146/159/141 42/153/137
f 149/154/138 143/156/140 148/77/77
f 145/155/139 142/152/136 144/184/150
f 142/152/136 42/153/137 144/184/150
f 42/153/137 146/159/141 147/161/143
f 86/136/53 75/139/37 133/137/125
f 6/140/29 7/141/30 65/185/22
f 138/147/131 46/157/21 146/159/141
f 147/161/143 21/162/5 19/163/28
f 144/184/150 42/153/137 18/164/144
f 145/155/139 144/184/150 17/165/101
f 144/184/150 18/164/144 17/165/101
f 145/155/139 17/165/101 143/156/140
f 148/77/77 34/166/87 52/76/76
f 92/175/146 137/143/128 13/69/69
f 92/175/146 134/55/55 137/143/128
